<svg width="27" height="28" viewBox="0 0 27 28" fill="none" xmlns="http://www.w3.org/2000/svg">
<path d="M26.4306 14.3425C26.3777 16.2353 26.3643 18.1298 26.2629 20.0209C26.2479 21.002 26.035 21.97 25.637 22.8669C25.239 23.7638 24.6642 24.5711 23.9468 25.2406C22.7947 26.2834 21.3304 26.9164 19.7815 27.0412C18.5443 27.1653 17.2953 27.2088 16.0505 27.2223C13.7319 27.2432 11.4107 27.2466 9.09296 27.1938C7.95922 27.1971 6.82784 27.09 5.7148 26.8744C4.24048 26.5974 2.89952 25.8397 1.90168 24.7196C0.903836 23.5995 0.305389 22.1802 0.199937 20.6838C0.0709139 19.3942 0.00768522 18.0989 0.0104939 16.8028C-0.0113007 14.5035 0.00294955 12.2033 0.0339649 9.9031C-0.00464874 8.62562 0.13644 7.34912 0.453092 6.1109C0.783441 4.80176 1.50313 3.62354 2.51709 2.732C3.53106 1.84046 4.7916 1.27751 6.13225 1.1174C7.54682 0.926773 8.97338 0.839354 10.4006 0.855858C12.7 0.821489 15.0001 0.843261 17.3003 0.874276C18.6287 0.83084 19.9562 0.983396 21.2401 1.32697C22.5234 1.6737 23.6735 2.39663 24.5423 3.40265C25.4112 4.40866 25.9591 5.65171 26.1154 6.97177C26.2924 8.41802 26.382 9.8736 26.3836 11.3306C26.4205 12.3315 26.3912 13.3357 26.3912 14.3391L26.4306 14.3425ZM24.044 14.05H23.9703C23.9703 12.7088 23.9946 11.3759 23.9619 10.0381C23.9567 9.12722 23.8864 8.21794 23.7515 7.31712C23.651 6.44282 23.286 5.62003 22.7052 4.95882C22.1244 4.2976 21.3556 3.82944 20.5016 3.61702C19.9187 3.44635 19.3165 3.35061 18.7094 3.33204C15.752 3.27895 12.7944 3.25103 9.8365 3.24824C8.83426 3.24736 7.83272 3.30136 6.83638 3.41001C5.7803 3.4656 4.77809 3.89367 4.0077 4.61817C3.23731 5.34268 2.74861 6.31668 2.62836 7.36736C2.46878 8.54101 2.39341 9.72466 2.40286 10.9091C2.37604 13.2386 2.38694 15.5688 2.42047 17.8983C2.41885 18.8602 2.4903 19.8209 2.63422 20.7719C2.73881 21.6509 3.11 22.4768 3.69788 23.1385C4.28577 23.8003 5.06216 24.2663 5.92269 24.4737C6.40908 24.6131 6.90958 24.6973 7.41478 24.7251C8.77024 24.788 10.1282 24.8333 11.4853 24.8274C14.0169 24.8165 16.5501 24.7922 19.0799 24.7143C20.1963 24.7036 21.2771 24.32 22.1504 23.6245C22.6908 23.1674 23.1248 22.5977 23.4222 21.9554C23.7196 21.3132 23.8732 20.6137 23.8722 19.906C23.9745 17.9595 23.9929 16.0031 24.0457 14.05H24.044Z" fill="white"/>
<path d="M19.9741 14.0341C19.974 15.3758 19.5757 16.6873 18.8298 17.8025C18.0839 18.9178 17.0238 19.7866 15.7838 20.2991C14.5438 20.8115 13.1797 20.9445 11.8641 20.6813C10.5484 20.418 9.34052 19.7703 8.3932 18.8202C7.44589 17.87 6.80177 16.6601 6.54242 15.3437C6.28307 14.0273 6.42014 12.6636 6.93627 11.4252C7.4524 10.1867 8.32438 9.12921 9.44182 8.3866C10.5593 7.64399 11.8719 7.24963 13.2136 7.25345C15.0089 7.25744 16.7292 7.97379 17.9967 9.24512C19.2643 10.5164 19.9755 12.2388 19.9741 14.0341ZM17.5767 14.0341C17.5765 13.1631 17.3169 12.312 16.831 11.5892C16.3451 10.8664 15.6549 10.3047 14.8484 9.97572C14.0419 9.64679 13.1557 9.56545 12.3029 9.74221C11.4501 9.91898 10.6692 10.3458 10.0599 10.9682C9.45061 11.5906 9.04051 12.3803 8.88191 13.2367C8.72331 14.0932 8.82339 14.9774 9.16939 15.7767C9.5154 16.576 10.0916 17.2541 10.8246 17.7246C11.5576 18.195 12.4141 18.4365 13.2849 18.4182C14.4323 18.3965 15.5252 17.9247 16.3281 17.1049C17.131 16.285 17.5798 15.1826 17.5776 14.035L17.5767 14.0341Z" fill="white"/>
<path d="M20.225 8.58184C19.8041 8.58184 19.4005 8.41466 19.1029 8.11708C18.8054 7.81949 18.6382 7.41592 18.6382 6.99507C18.6382 6.57422 18.8054 6.17055 19.1029 5.87297C19.4005 5.57538 19.8041 5.4082 20.225 5.4082C20.6458 5.4082 21.0495 5.57538 21.347 5.87297C21.6446 6.17055 21.8118 6.57422 21.8118 6.99507C21.8118 7.41592 21.6446 7.81949 21.347 8.11708C21.0495 8.41466 20.6458 8.58184 20.225 8.58184Z" fill="white"/>
</svg>
