<svg width="27" height="27" viewBox="0 0 27 27" fill="none" xmlns="http://www.w3.org/2000/svg">
<path d="M0.210449 26.7279C0.746858 25.0172 1.16855 23.3947 1.76768 21.8416C2.01832 21.2411 2.13781 20.594 2.11817 19.9436C2.09853 19.2932 1.94021 18.6546 1.6538 18.0703C0.607859 15.536 0.384698 12.7371 1.01582 10.0691C1.64695 7.4011 3.10045 4.99887 5.17098 3.2018C7.24151 1.40474 9.82437 0.30368 12.5546 0.0542514C15.2849 -0.195177 18.0245 0.419693 20.3864 1.81182C22.7483 3.20395 24.613 5.303 25.7172 7.81247C26.8213 10.3219 27.109 13.1149 26.5396 15.7968C25.9702 18.4786 24.5724 20.9138 22.5439 22.7581C20.5154 24.6025 17.9586 25.7628 15.2348 26.0751C12.7216 26.3377 10.1844 25.9061 7.89924 24.8274C7.52313 24.6731 7.10675 24.6467 6.71418 24.7522C4.82602 25.3052 2.95603 25.9216 1.07778 26.5116C0.841757 26.5826 0.598314 26.6305 0.210449 26.7279ZM3.73753 23.3732C4.92588 23.011 5.90546 22.7403 6.86275 22.411C7.15278 22.303 7.46372 22.2631 7.77163 22.2943C8.07954 22.3255 8.37617 22.427 8.63865 22.5909C10.8038 23.8121 13.3389 24.2049 15.7721 23.6959C18.415 23.1841 20.7713 21.7034 22.3789 19.5441C23.9866 17.3848 24.7295 14.7029 24.462 12.0242C24.1945 9.34554 22.9359 6.86345 20.933 5.06475C18.9301 3.26605 16.3274 2.28055 13.6355 2.30151C11.7346 2.3196 9.8723 2.83976 8.23719 3.80935C6.60208 4.77895 5.25227 6.16352 4.32456 7.82275C3.39684 9.48198 2.92416 11.3569 2.9544 13.2577C2.98464 15.1584 3.51674 17.0174 4.49677 18.6463C4.63973 18.8519 4.73276 19.0879 4.76843 19.3358C4.80411 19.5836 4.78143 19.8364 4.70225 20.074C4.37545 21.089 4.10146 22.1231 3.73753 23.3708V23.3732Z" fill="white"/>
<path d="M7.54053 10.1956C7.73179 9.45326 7.97333 8.72484 8.26345 8.0153C8.39217 7.68871 8.63531 7.42007 8.94751 7.25957C9.25971 7.09906 9.61964 7.05765 9.96015 7.14302C10.3835 7.2701 10.7029 7.80325 11.0239 8.19855C11.1681 8.44349 11.2931 8.69926 11.3977 8.96355C11.6969 9.3267 11.8397 9.79371 11.7948 10.2621C11.7499 10.7304 11.5211 11.1618 11.1584 11.4615C11.0635 11.6153 11.009 11.7906 10.9999 11.9711C10.9908 12.1516 11.0274 12.3314 11.1064 12.4939C12.0979 13.9361 13.4016 15.1363 14.9207 16.0053C15.0136 16.0804 15.122 16.1339 15.2382 16.1618C15.3543 16.1897 15.4752 16.1914 15.592 16.1666C15.7089 16.1419 15.8188 16.0913 15.9136 16.0187C16.0085 15.9461 16.086 15.8533 16.1404 15.747C17.2182 14.3672 17.2421 14.3862 18.8043 15.1602C18.9578 15.2362 19.1121 15.3129 19.2631 15.3921C20.5786 16.0895 20.7255 17.0484 19.6923 18.1559C19.2807 18.5976 18.7479 18.908 18.1607 19.0481C17.5734 19.1882 16.9579 19.1517 16.3913 18.9432C14.6638 18.5235 13.0458 17.7401 11.6451 16.6455C10.2443 15.5509 9.09321 14.1702 8.26841 12.5954C7.94432 11.8225 7.7004 11.0183 7.54053 10.1956Z" fill="white"/>
</svg>
