<svg width="29" height="22" viewBox="0 0 29 22" fill="none" xmlns="http://www.w3.org/2000/svg">
<path d="M0.84082 2.35303C0.84082 1.24846 1.73625 0.353027 2.84082 0.353027H26.8016C27.9062 0.353027 28.8016 1.24846 28.8016 2.35303V19.3395C28.8016 20.4441 27.9062 21.3395 26.8016 21.3395H2.84082C1.73625 21.3395 0.84082 20.4441 0.84082 19.3395V2.35303ZM25.6598 2.50729L25.4813 2.24831H4.12008C7.51836 5.68515 10.7666 9.00294 14.0592 12.273C14.1811 12.3907 14.3263 12.4815 14.4854 12.5395C14.6446 12.5976 14.8141 12.6215 14.9831 12.6099C15.1522 12.5983 15.3168 12.5514 15.4665 12.4721C15.6162 12.3928 15.7477 12.283 15.8523 12.1498C19.1248 8.9387 22.394 5.72451 25.6598 2.50729ZM25.2927 19.5079L25.4411 19.2917L18.2371 12.5705C14.8497 15.2856 14.8497 15.2856 11.1757 12.2352L4.0857 19.5113L25.2927 19.5079ZM2.76964 17.4173L9.7875 10.8521L2.76964 4.00279V17.4173ZM26.8661 4.09744L19.8113 10.9862L26.8661 17.6235V4.09744Z" fill="white"/>
</svg>
